<svg xmlns="http://www.w3.org/2000/svg" viewBox="0 0 324.74 195.22"><defs><style>.cls-1{fill:#fff;}</style></defs><title>KMD_Vert_White</title><g id="Layer_2" data-name="Layer 2"><g id="Layer_1-2" data-name="Layer 1"><path class="cls-1" d="M67.43,151.28c-12.22,0-22.54,10.06-22.54,22,0,12.93,9.27,22,22.54,22,12.22,0,22.54-10.07,22.54-22,0-12.94-9.27-22-22.54-22m9.37,22a9.16,9.16,0,0,1-9.37,9.56,9.26,9.26,0,0,1-9.37-9.56,9.16,9.16,0,0,1,9.37-9.56c5.52,0,9.37,3.93,9.37,9.56"/><path class="cls-1" d="M150.43,151.28a23.59,23.59,0,0,0-15.74,6.11c-4.12-4-9.68-6.11-16.17-6.11-10.93,0-22.73,8.4-22.73,22v19.06a2,2,0,0,0,2,2H107a2,2,0,0,0,2-2V173.25a9.16,9.16,0,0,1,9.37-9.56c5.52,0,9.37,3.93,9.37,9.56v19.06a2,2,0,0,0,2,2h9.25a2,2,0,0,0,2-2V173.25c0-5.63,3.86-9.56,9.37-9.56a9.16,9.16,0,0,1,9.37,9.56v19.06a2,2,0,0,0,2,2h9.25a2,2,0,0,0,2-2V173.25c0-12.94-9.19-22-22.35-22"/><path class="cls-1" d="M201.15,151.28c-12.22,0-22.54,10.06-22.54,22,0,12.93,9.27,22,22.54,22,12.22,0,22.54-10.07,22.54-22,0-12.94-9.27-22-22.54-22m9.37,22a9.16,9.16,0,0,1-9.37,9.56,9.26,9.26,0,0,1-9.37-9.56,9.16,9.16,0,0,1,9.37-9.56c5.52,0,9.37,3.93,9.37,9.56"/><path class="cls-1" d="M261,153.66a19.82,19.82,0,0,0-8.77-2.36,22.26,22.26,0,0,0-23.14,21.93c0,12.94,9.27,22,22.54,22,12.22,0,22.54-10.07,22.54-22V132.51a1.84,1.84,0,0,0-1.84-1.84h-9.48a1.84,1.84,0,0,0-1.85,1.84Zm0,19.59a9.16,9.16,0,0,1-9.37,9.56,9.26,9.26,0,0,1-9.37-9.56,9.16,9.16,0,0,1,9.37-9.56c5.52,0,9.37,3.93,9.37,9.56"/><path class="cls-1" d="M302.2,151.28c-12.22,0-22.54,10.06-22.54,22,0,12.93,9.27,22,22.54,22,12.22,0,22.54-10.07,22.54-22,0-12.94-9.27-22-22.54-22m9.37,22a9.16,9.16,0,0,1-9.37,9.56,9.26,9.26,0,0,1-9.37-9.56,9.16,9.16,0,0,1,9.37-9.56c5.51,0,9.37,3.93,9.37,9.56"/><path class="cls-1" d="M43.4,151.28H29.32a1.48,1.48,0,0,0-1.05.43L15.7,164.29a1.48,1.48,0,0,1-2.53-1V132.15a1.48,1.48,0,0,0-1.48-1.48H1.48A1.48,1.48,0,0,0,0,132.15v61.58a1.49,1.49,0,0,0,1.48,1.49H11.69a1.49,1.49,0,0,0,1.48-1.49v-8a1.51,1.51,0,0,1,.43-1l4-4a1.47,1.47,0,0,1,2.24.17l10.08,13.8a1.48,1.48,0,0,0,1.19.61H43.45a1.49,1.49,0,0,0,1.2-2.36L28.83,171.19a1.49,1.49,0,0,1,.15-1.92l15.46-15.46a1.48,1.48,0,0,0-1-2.53"/><path class="cls-1" d="M107.9,54.3A54.3,54.3,0,1,0,215,41.68a5.83,5.83,0,0,0-11.34,2.7A42.62,42.62,0,1,1,172.1,12.81a5.82,5.82,0,1,0,2.69-11.33A54.3,54.3,0,0,0,107.9,54.3"/><path class="cls-1" d="M189.65,14.58c-.08.08-.13.17-.2.24a8.66,8.66,0,0,0-2.3,5.14h0c0,.3,0,.61,0,.92s-.05.42-.07.62a15.51,15.51,0,0,1-19,13.58c-.39-.09-.78-.2-1.16-.32a20,20,0,0,0-18.33,4.78c-.19.18-.41.34-.61.54A20.09,20.09,0,0,0,176.4,68.5a19.38,19.38,0,0,0,2.25-2.74,20.06,20.06,0,0,0,3.08-16.15,10.52,10.52,0,0,1-.3-1.1.75.75,0,0,1-.05-.16,15.52,15.52,0,0,1,13.82-19l.34,0c.33,0,.66,0,1,0h.08a8.58,8.58,0,0,0,5.3-2.49,9,9,0,0,0,.93-1.13,8.66,8.66,0,0,0-13.18-11.13"/></g></g></svg>