<svg xmlns="http://www.w3.org/2000/svg" viewBox="0 0 480 479.98"><defs><style>.cls-1{fill:#fff;}.cls-2{fill:#00edd3;}</style></defs><title>Interoperability_Light</title><g id="Layer_2" data-name="Layer 2"><g id="Layer_1-2" data-name="Layer 1"><path class="cls-1" d="M479.38,293.08a8.35,8.35,0,0,0-.45-1.07,7.36,7.36,0,0,0-.47-.63,8.76,8.76,0,0,0-.8-1c-.14-.13-.32-.23-.47-.36a8,8,0,0,0-1.17-.91l-96-56a8,8,0,0,0-8.07,0L353.5,243.86l-27.39-44.8L340,190.91a8,8,0,0,0,4-6.91V64a7.72,7.72,0,0,0-.28-2.08,7.39,7.39,0,0,0-.34-.84,8.35,8.35,0,0,0-.45-1.07,7.36,7.36,0,0,0-.47-.63,8.76,8.76,0,0,0-.8-1c-.14-.13-.32-.23-.47-.36a8,8,0,0,0-1.17-.91l-96-56a8,8,0,0,0-8.07,0l-96,56a7.32,7.32,0,0,0-1.2.94,4.87,4.87,0,0,0-.43.33,8.73,8.73,0,0,0-.8,1c-.14.21-.33.39-.45.61a7.43,7.43,0,0,0-.49,1.17,6.66,6.66,0,0,0-.31.73A8.21,8.21,0,0,0,136,64V184a8,8,0,0,0,4,6.91L153.91,199l-27.39,44.8L108,233.09a8,8,0,0,0-8.06,0l-96,56a7.39,7.39,0,0,0-1.21.94,4.71,4.71,0,0,0-.42.33,8.82,8.82,0,0,0-.81,1c-.14.21-.32.39-.45.61a8.52,8.52,0,0,0-.49,1.17,6.59,6.59,0,0,0-.3.73A7.83,7.83,0,0,0,0,296V416a8,8,0,0,0,4,6.91l96,56a7.37,7.37,0,0,0,1.27.52c.22.09.43.21.65.28a8,8,0,0,0,4.13,0c.22-.07.43-.19.65-.28a7.37,7.37,0,0,0,1.27-.52l96-56a8,8,0,0,0,4-6.91V392h64v24a8,8,0,0,0,4,6.91l96,56a7.37,7.37,0,0,0,1.27.52c.22.09.43.21.65.28a8,8,0,0,0,4.13,0c.22-.07.43-.19.65-.28a7.37,7.37,0,0,0,1.27-.52l96-56a8,8,0,0,0,4-6.91V296a7.72,7.72,0,0,0-.28-2.08A7.39,7.39,0,0,0,479.38,293.08ZM376,249.26,456.12,296,376,342.74,295.88,296,348,265.6l4.32,7.1a4,4,0,0,0,5.5,1.33l6.82-4.17a4,4,0,0,0,1.33-5.5l-4.17-6.82Zm-58.23-63.88-5.68-9.31a4,4,0,0,0-5.5-1.32l-6.83,4.17a4,4,0,0,0-1.33,5.5l5.52,9L248,226.07V124.6l80-46.66V179.41ZM240,17.26,320.12,64,240,110.74,159.88,64ZM152,179.41V77.94l80,46.66V226.07l-55.94-32.63,5.51-9a4,4,0,0,0-1.33-5.5l-6.83-4.17a4,4,0,0,0-5.49,1.33l-5.69,9.3Zm-48,69.85,14.15,8.26L114,264.34a4,4,0,0,0,1.33,5.5l6.82,4.17a4,4,0,0,0,5.51-1.34l4.32-7.09L184.12,296,104,342.74,23.88,296ZM16,309.94,96,356.6V458.07L16,411.41ZM192,411.41l-80,46.66V356.6l80-46.66V376H172a4,4,0,0,0-4,4v8a4,4,0,0,0,4,4h20ZM208,376V296a7.72,7.72,0,0,0-.28-2.08,7.39,7.39,0,0,0-.34-.84,8.35,8.35,0,0,0-.45-1.07,7.36,7.36,0,0,0-.47-.63,8.76,8.76,0,0,0-.8-1c-.14-.13-.32-.23-.47-.36a8,8,0,0,0-1.17-.91l-63.7-37.17,27.39-44.8L236,246.91h0a7.37,7.37,0,0,0,1.27.52c.22.09.43.21.65.28a8,8,0,0,0,4.13,0c.22-.07.43-.19.66-.28a7.27,7.27,0,0,0,1.26-.52l68.26-39.81,27.39,44.8L276,289.09a7.85,7.85,0,0,0-1.21.94c-.13.12-.3.2-.42.33a8.73,8.73,0,0,0-.8,1c-.14.21-.33.39-.46.61a7.38,7.38,0,0,0-.48,1.17,6.66,6.66,0,0,0-.31.73A7.84,7.84,0,0,0,272,296v80Zm80,16h20a4,4,0,0,0,4-4v-8a4,4,0,0,0-4-4H288V309.94l80,46.66V458.07l-80-46.66Zm96,66.07V356.6l80-46.66V411.41Z"/><path class="cls-2" d="M46.76,239.35l7.89,1.32a4,4,0,0,0,4.58-3.17A183.61,183.61,0,0,1,122,130.82a4,4,0,0,0,.55-5.55l-5-6.25a4,4,0,0,0-5.71-.56A199.6,199.6,0,0,0,43.49,234.63,4,4,0,0,0,46.76,239.35Z"/><path class="cls-2" d="M362.48,119l-5,6.25a4,4,0,0,0,.55,5.55A183.61,183.61,0,0,1,420.77,237.5a4,4,0,0,0,4.58,3.17l7.89-1.32a4,4,0,0,0,3.27-4.72,199.6,199.6,0,0,0-68.33-116.17A4,4,0,0,0,362.48,119Z"/><path class="cls-2" d="M186.14,452.12l-2.29,7.67a4,4,0,0,0,2.8,5,201.25,201.25,0,0,0,107.73-.28,4,4,0,0,0,2.77-5l-2.34-7.67a4,4,0,0,0-4.87-2.69,186,186,0,0,1-98.94.27A4,4,0,0,0,186.14,452.12Z"/></g></g></svg>