<svg xmlns="http://www.w3.org/2000/svg" viewBox="0 0 406.57 101.06"><defs><style>.cls-1{fill:#fff;}</style></defs><title>KMD_Horiz_White</title><g id="Layer_2" data-name="Layer 2"><g id="Layer_1-2" data-name="Layer 1"><path class="cls-1" d="M0,50.53A50.53,50.53,0,1,0,99.68,38.79,5.42,5.42,0,1,0,89.13,41.3,39.67,39.67,0,1,1,59.74,11.92,5.42,5.42,0,1,0,62.25,1.38,50.52,50.52,0,0,0,0,50.53"/><path class="cls-1" d="M76.07,13.57c-.07.07-.12.15-.19.22a8.07,8.07,0,0,0-2.14,4.78h0c0,.29,0,.57,0,.86s0,.39-.06.58A14.43,14.43,0,0,1,56,32.65a9.55,9.55,0,0,1-1.08-.3,19,19,0,0,0-4.68-.52,18.57,18.57,0,0,0-12.37,5c-.19.18-.39.32-.57.5A18.7,18.7,0,0,0,63.74,63.75a19.1,19.1,0,0,0,5-17.59c-.11-.33-.2-.67-.28-1,0,0,0-.1,0-.16A14.44,14.44,0,0,1,81.24,27.36l.31,0c.31,0,.61,0,.92,0h.07A8,8,0,0,0,87.47,25a7.17,7.17,0,0,0,.86-1A8.05,8.05,0,0,0,76.07,13.57"/><path class="cls-1" d="M191.43,40.75c-10.22,0-18.85,8.41-18.85,18.36,0,10.82,7.75,18.37,18.85,18.37,10.21,0,18.84-8.41,18.84-18.37,0-10.81-7.75-18.36-18.84-18.36m7.83,18.36a7.65,7.65,0,0,1-7.83,8,7.75,7.75,0,0,1-7.84-8,7.66,7.66,0,0,1,7.84-8c4.61,0,7.83,3.29,7.83,8"/><path class="cls-1" d="M260.83,40.75a19.67,19.67,0,0,0-13.16,5.11,18.88,18.88,0,0,0-13.52-5.11c-9.14,0-19,7-19,18.36V75.05a1.64,1.64,0,0,0,1.64,1.64h7.74a1.64,1.64,0,0,0,1.64-1.64V59.11a7.84,7.84,0,1,1,15.67,0V75.05a1.63,1.63,0,0,0,1.63,1.64h7.74a1.64,1.64,0,0,0,1.64-1.64V59.11c0-4.7,3.22-8,7.83-8a7.65,7.65,0,0,1,7.83,8V75.05a1.64,1.64,0,0,0,1.64,1.64h7.74a1.64,1.64,0,0,0,1.64-1.64V59.11c0-10.81-7.69-18.36-18.69-18.36"/><path class="cls-1" d="M303.24,40.75c-10.22,0-18.85,8.41-18.85,18.36,0,10.82,7.75,18.37,18.85,18.37,10.21,0,18.84-8.41,18.84-18.37,0-10.81-7.75-18.36-18.84-18.36m7.83,18.36a7.65,7.65,0,0,1-7.83,8,7.75,7.75,0,0,1-7.84-8,7.66,7.66,0,0,1,7.84-8c4.61,0,7.83,3.29,7.83,8"/><path class="cls-1" d="M353.32,42.74a16.49,16.49,0,0,0-7.34-2A18.61,18.61,0,0,0,326.63,59.1c0,10.82,7.75,18.38,18.85,18.38,10.22,0,18.85-8.41,18.85-18.37V25.05a1.54,1.54,0,0,0-1.55-1.54h-7.92a1.54,1.54,0,0,0-1.54,1.54Zm0,16.37a7.66,7.66,0,0,1-7.84,8,7.74,7.74,0,0,1-7.83-8,7.84,7.84,0,1,1,15.67,0"/><path class="cls-1" d="M387.73,40.75c-10.22,0-18.85,8.41-18.85,18.36,0,10.82,7.75,18.37,18.85,18.37,10.21,0,18.84-8.41,18.84-18.37,0-10.81-7.75-18.36-18.84-18.36m7.83,18.36a7.65,7.65,0,0,1-7.83,8,7.75,7.75,0,0,1-7.84-8,7.66,7.66,0,0,1,7.84-8c4.61,0,7.83,3.29,7.83,8"/><path class="cls-1" d="M171.33,40.75H159.56a1.23,1.23,0,0,0-.87.36L148.17,51.62a1.24,1.24,0,0,1-2.11-.88v-26a1.25,1.25,0,0,0-1.24-1.24h-8.53a1.24,1.24,0,0,0-1.24,1.24V76.24a1.23,1.23,0,0,0,1.24,1.24h8.53a1.24,1.24,0,0,0,1.24-1.24V69.52a1.24,1.24,0,0,1,.36-.87l3.36-3.36a1.23,1.23,0,0,1,1.87.15L160.08,77a1.22,1.22,0,0,0,1,.5h10.3a1.24,1.24,0,0,0,1-2L159.15,57.4a1.25,1.25,0,0,1,.13-1.61l12.93-12.93a1.24,1.24,0,0,0-.88-2.11"/></g></g></svg>