<svg xmlns="http://www.w3.org/2000/svg" xmlns:xlink="http://www.w3.org/1999/xlink" viewBox="0 0 538.86 148.35"><defs><style>.cls-1{fill:url(#linear-gradient);}.cls-2{fill:#3cc9bf;}.cls-3{fill:#fff;}</style><linearGradient id="linear-gradient" y1="74.17" x2="130.26" y2="74.17" gradientUnits="userSpaceOnUse"><stop offset="0.02" stop-color="#2b6680"/><stop offset="1" stop-color="#00edd3"/></linearGradient></defs><title>mark_and_text_light</title><g id="Layer_2" data-name="Layer 2"><g id="Layer_1-2" data-name="Layer 1"><path class="cls-1" d="M30.65,60a6.44,6.44,0,1,1,6.44,6.44A6.43,6.43,0,0,1,30.65,60ZM28.44,98.12A98.64,98.64,0,0,1,14.56,84.2,119.45,119.45,0,0,1,28.37,71.1a2.46,2.46,0,0,0-3.12-3.8A126,126,0,0,0,11.61,80.14C7.37,73.71,6,68.18,8,64.63S15.44,59.54,23.35,60a2.46,2.46,0,0,0,.29-4.91c-10-.59-16.89,1.85-19.9,7.07-1.91,3.29-3,9.19,2.45,18.55.63,1.08,1.34,2.19,2.12,3.3C.69,93.6-1.88,101.88,1.39,107.54,3.85,111.8,9.17,114,17,114a56.78,56.78,0,0,0,8.66-.74,2.46,2.46,0,0,0-.76-4.86c-10.09,1.57-17.09.37-19.21-3.3-1.83-3.17-.32-9.12,5.72-17A104,104,0,0,0,25.29,101.9a2.47,2.47,0,0,0,1.57.57,2.46,2.46,0,0,0,1.58-4.35Zm7.14-26.87h0a2.47,2.47,0,0,0-2.46,2.46v.46c0,6.69.32,13.32.94,19.7a2.45,2.45,0,0,0,2.44,2.22h.24A2.46,2.46,0,0,0,39,93.4C38.34,87.17,38,80.7,38,74.17v-.45A2.45,2.45,0,0,0,35.58,71.25ZM72.52,90.17a199.31,199.31,0,0,1-21.73,10.51,2.46,2.46,0,0,0,1.85,4.56A205.6,205.6,0,0,0,74.91,94.47a2.46,2.46,0,0,0-2.39-4.3ZM128.86,34c-3.7-6.42-13.67-8.1-28.83-4.85A124.8,124.8,0,0,0,83.42,34a108.92,108.92,0,0,0-3.61-12.47C74.72,7.44,68,0,60.36,0c-13.67,0-22,23.67-25.26,45.82a2.46,2.46,0,0,0,4.87.72C43.56,22,52,4.92,60.36,4.92c5.23,0,10.63,6.66,14.82,18.27a104.86,104.86,0,0,1,3.6,12.58A207,207,0,0,0,52.39,48.69c-1.45.83-2.94,1.72-4.43,2.62a2.46,2.46,0,1,0,2.55,4.21c1.46-.89,2.92-1.76,4.34-2.57A200.9,200.9,0,0,1,79.78,40.67a182.36,182.36,0,0,1,2.88,30.14,2.46,2.46,0,0,0,2.46,2.42h0a2.46,2.46,0,0,0,2.42-2.5,187,187,0,0,0-3.13-31.87c21.1-7.8,36.75-8.35,40.15-2.45,1.86,3.23.22,8.73-4.62,15.49-5.26,7.34-13.74,15.46-24.53,23.5a2.46,2.46,0,0,0,1.48,4.43,2.42,2.42,0,0,0,1.46-.49c11.19-8.33,20-16.83,25.59-24.57C128.25,48.81,132.56,40.36,128.86,34ZM98.49,90a2.46,2.46,0,0,0-3.21,3.73c15.06,13,22.71,25.94,19,32.3-2.54,4.4-10.52,5.79-21.89,3.83a92.9,92.9,0,0,1-12.56-3.14,132.13,132.13,0,0,0,6.29-28.08,2.46,2.46,0,0,0-4.88-.6A127,127,0,0,1,75.2,125.1a158,158,0,0,1-24.43-11.52,2.46,2.46,0,0,0-2.46,4.26,163.64,163.64,0,0,0,25.07,11.83c-.27.6-.54,1.19-.81,1.76-3.73,7.74-8.07,12-12.21,12-6,0-12.15-8.73-16.48-23.34a2.46,2.46,0,1,0-4.71,1.39c5.12,17.33,12.65,26.87,21.19,26.87,6.22,0,12-5.11,16.64-14.78.36-.74.7-1.51,1-2.29a100.16,100.16,0,0,0,13.54,3.41,58.58,58.58,0,0,0,9.89.93c8.45,0,14.39-2.44,17.11-7.15C123.69,119.6,116.19,105.21,98.49,90ZM75.68,73.77l-1.56-.91a165.28,165.28,0,0,0-23-11.06,2.46,2.46,0,0,0-1.77,4.59A159.32,159.32,0,0,1,71.66,77.12l1.51.89a2.5,2.5,0,0,0,1.25.34,2.46,2.46,0,0,0,1.26-4.58ZM45,107.29a6.43,6.43,0,1,0-6.43,6.43A6.43,6.43,0,0,0,45,107.29ZM91.58,84.58A6.44,6.44,0,1,0,85.15,91,6.43,6.43,0,0,0,91.58,84.58Z"/><path class="cls-2" d="M410.11,48.24c16.76,0,28.84,12.23,28.84,27.28s-12.08,27.28-28.84,27.28h-17a1.72,1.72,0,0,1-1.72-1.72V50a1.72,1.72,0,0,1,1.72-1.72Zm-7.8,43.65h7.8c10.13,0,17.15-6.63,17.15-16.37s-7-16.37-17.15-16.37h-7.8Z"/><path class="cls-2" d="M481.76,50v7.47A1.72,1.72,0,0,1,480,59.15H455.25v9.74H473a1.72,1.72,0,0,1,1.72,1.72v7.48A1.72,1.72,0,0,1,473,79.81H455.25V91.89h25.57a1.72,1.72,0,0,1,1.72,1.72v7.47a1.72,1.72,0,0,1-1.72,1.72H446.06a1.72,1.72,0,0,1-1.72-1.72V50a1.72,1.72,0,0,1,1.72-1.72h34A1.72,1.72,0,0,1,481.76,50Z"/><path class="cls-2" d="M501.88,49l11.06,16L524,49a1.7,1.7,0,0,1,1.41-.74h9.39A1.71,1.71,0,0,1,536.19,51L519.57,74l18.95,26.11a1.72,1.72,0,0,1-1.39,2.73h-9.38a1.72,1.72,0,0,1-1.41-.73l-13.4-19.14-13.4,19.14a1.72,1.72,0,0,1-1.41.73h-9.38a1.72,1.72,0,0,1-1.4-2.73l19-26.11L489.68,51a1.72,1.72,0,0,1,1.4-2.72h9.38A1.71,1.71,0,0,1,501.88,49Z"/><path class="cls-3" d="M274.39,62.94v0a19,19,0,0,1,9.87-3c6.86,0,11.58,2.15,14.58,5.58a21.55,21.55,0,0,1,13.73-5.58c12.87,0,18.45,7.3,18.45,18.88v21a1.72,1.72,0,0,1-1.72,1.72h-6.52a1.71,1.71,0,0,1-1.71-1.72V79.89c0-6.86-3-10.38-8.84-10.38a13.23,13.23,0,0,0-9.53,4.29v26a1.72,1.72,0,0,1-1.71,1.72h-6.52a1.72,1.72,0,0,1-1.72-1.72V79.89c0-6.86-3-10.38-8.84-10.38a13.19,13.19,0,0,0-9.52,4.29v26a1.72,1.72,0,0,1-1.72,1.72h-6.52a1.72,1.72,0,0,1-1.72-1.72V62.93a1.71,1.71,0,0,1,1.72-1.71h6.52A1.72,1.72,0,0,1,274.39,62.94Z"/><path class="cls-3" d="M215,94.16a1.72,1.72,0,0,0-2.25-1.63,14.66,14.66,0,0,1-4.35.66C205,93.19,202,91,202,84.1V71.23h11.33A1.72,1.72,0,0,0,215,69.51v-6.6a1.72,1.72,0,0,0-1.71-1.72H202V52.61a1.72,1.72,0,0,0-1.72-1.72h-6.6A1.72,1.72,0,0,0,192,52.61v8.58h-5.58a1.72,1.72,0,0,0-1.71,1.72v6.6a1.72,1.72,0,0,0,1.71,1.72H192V85c0,11.15,5.58,17.84,16.48,17.84a20.73,20.73,0,0,0,5.38-.91,1.72,1.72,0,0,0,1.22-1.65Z"/><path class="cls-3" d="M238.58,59.9A21.45,21.45,0,1,0,260,81.35,21.45,21.45,0,0,0,238.58,59.9Zm0,33.28a11.83,11.83,0,1,1,11.84-11.83A11.83,11.83,0,0,1,238.58,93.18Z"/><rect class="cls-3" x="336.49" y="45.54" width="10.35" height="10.35" rx="5.18"/><rect class="cls-3" x="336.63" y="61.19" width="9.95" height="40.33" rx="1.72"/><path class="cls-3" d="M179,61.19h-6.52a1.72,1.72,0,0,0-1.72,1.72v.33a21.45,21.45,0,1,0,0,36.22v.34a1.72,1.72,0,0,0,1.72,1.72H179a1.72,1.72,0,0,0,1.71-1.72V62.91A1.72,1.72,0,0,0,179,61.19Zm-19.74,32a11.83,11.83,0,1,1,11.5-14.63v5.6A11.83,11.83,0,0,1,159.22,93.18Z"/><path class="cls-3" d="M384,93a1.72,1.72,0,0,0-2.44-1.55,18.89,18.89,0,0,1-7.85,1.72c-7.47,0-12.1-5.23-12.1-11.84s4.63-11.84,12.1-11.84a18.91,18.91,0,0,1,7.85,1.73A1.72,1.72,0,0,0,384,69.68V63.25a1.72,1.72,0,0,0-1.05-1.59,24.34,24.34,0,0,0-9.24-1.76c-13.3,0-22.31,9.61-22.31,21.45s9,21.45,22.31,21.45a24.15,24.15,0,0,0,9.24-1.76A1.7,1.7,0,0,0,384,99.46Z"/></g></g></svg>