<svg xmlns="http://www.w3.org/2000/svg" xmlns:xlink="http://www.w3.org/1999/xlink" viewBox="0 0 242.95 276.68"><defs><style>.cls-1{fill:url(#linear-gradient);}</style><linearGradient id="linear-gradient" y1="138.34" x2="242.95" y2="138.34" gradientUnits="userSpaceOnUse"><stop offset="0.02" stop-color="#2b6680"/><stop offset="1" stop-color="#00edd3"/></linearGradient></defs><title>mark_only</title><g id="Layer_2" data-name="Layer 2"><g id="Layer_1-2" data-name="Layer 1"><path class="cls-1" d="M57.17,111.87a12,12,0,1,1,12,12A12,12,0,0,1,57.17,111.87ZM53.05,183a183.07,183.07,0,0,1-25.89-26,225.23,225.23,0,0,1,25.76-24.42,4.59,4.59,0,1,0-5.83-7.08,236.42,236.42,0,0,0-25.44,23.94c-7.9-12-10.56-22.31-6.73-28.94,3.71-6.42,13.87-9.48,28.62-8.6a4.59,4.59,0,0,0,.55-9.16C25.42,101.66,12.59,106.22,7,116c-3.55,6.15-5.64,17.14,4.57,34.6,1.18,2,2.51,4.08,4,6.16C1.3,174.58-3.5,190,2.59,200.57c4.59,8,14.51,12,29,12a105.44,105.44,0,0,0,16.16-1.38,4.58,4.58,0,1,0-1.41-9.06c-18.83,2.94-31.89.69-35.84-6.15-3.42-5.92-.59-17,10.66-31.73a195.43,195.43,0,0,0,26,25.79,4.59,4.59,0,1,0,5.89-7Zm13.31-50.12h0a4.59,4.59,0,0,0-4.59,4.58v.87c0,12.47.59,24.83,1.74,36.74a4.6,4.6,0,0,0,4.56,4.15,3.4,3.4,0,0,0,.45,0,4.59,4.59,0,0,0,4.13-5c-1.13-11.61-1.71-23.68-1.71-35.85v-.85A4.6,4.6,0,0,0,66.36,132.89Zm68.89,35.29a372.58,372.58,0,0,1-40.53,19.6,4.59,4.59,0,0,0,3.47,8.5,383.6,383.6,0,0,0,41.53-20.08,4.59,4.59,0,0,0-4.47-8ZM240.33,63.31c-6.9-12-25.49-15.09-53.76-9a233,233,0,0,0-31,9.13,201.88,201.88,0,0,0-6.74-23.26C139.37,13.88,126.83,0,112.58,0,87.08,0,71.52,44.15,65.46,85.47a4.59,4.59,0,0,0,9.08,1.33c6.71-45.71,22.35-77.62,38-77.62,9.74,0,19.82,12.42,27.64,34.07a193.59,193.59,0,0,1,6.71,23.46A386.29,386.29,0,0,0,97.71,90.8C95,92.36,92.23,94,89.44,95.7a4.59,4.59,0,0,0,4.77,7.84c2.72-1.65,5.44-3.27,8.09-4.79a375.28,375.28,0,0,1,46.51-22.9,340.53,340.53,0,0,1,5.36,56.21,4.59,4.59,0,0,0,4.59,4.52h.07a4.59,4.59,0,0,0,4.51-4.66,348.21,348.21,0,0,0-5.84-59.44C196.86,57.93,226,56.91,232.39,67.9c3.48,6,.42,16.29-8.62,28.9-9.8,13.68-25.62,28.84-45.74,43.82a4.59,4.59,0,0,0,2.75,8.27,4.5,4.5,0,0,0,2.73-.91c20.87-15.54,37.37-31.39,47.72-45.83C239.19,91,247.24,75.27,240.33,63.31ZM183.7,167.82a4.59,4.59,0,1,0-6,7C205.79,199,220.05,223.16,213.21,235c-4.74,8.2-19.62,10.81-40.84,7.15a174.42,174.42,0,0,1-23.43-5.87c5.26-14.62,9.27-32.42,11.73-52.36a4.58,4.58,0,1,0-9.1-1.13c-2.39,19.36-6.26,36.55-11.31,50.52a293.53,293.53,0,0,1-45.57-21.5,4.59,4.59,0,0,0-4.59,7.95,303.66,303.66,0,0,0,46.76,22.07c-.5,1.12-1,2.22-1.51,3.28-7,14.43-15,22.38-22.77,22.38-11.18,0-22.67-16.28-30.73-43.53a4.59,4.59,0,1,0-8.8,2.6c9.56,32.31,23.6,50.1,39.53,50.1,11.61,0,22.34-9.53,31-27.56.67-1.38,1.31-2.81,1.94-4.27a184.61,184.61,0,0,0,25.26,6.36,108.7,108.7,0,0,0,18.44,1.73c15.75,0,26.83-4.55,31.9-13.34C230.7,223.07,216.7,196.24,183.7,167.82Zm-42.56-30.23-2.9-1.7a307.59,307.59,0,0,0-42.83-20.62,4.59,4.59,0,1,0-3.3,8.56,298.21,298.21,0,0,1,41.55,20l2.81,1.65a4.59,4.59,0,1,0,4.67-7.9ZM84,200.1a12,12,0,1,0-12,12A12,12,0,0,0,84,200.1Zm86.82-42.35a12,12,0,1,0-12,12A12,12,0,0,0,170.81,157.75Z"/></g></g></svg>