<svg xmlns="http://www.w3.org/2000/svg" viewBox="0 0 440.28 505.15"><defs><style>.cls-1{fill:#051019;}</style></defs><title>Scalability_Black</title><g id="Layer_2" data-name="Layer 2"><g id="Layer_1-2" data-name="Layer 1"><path class="cls-1" d="M145,203.15a10.48,10.48,0,0,0-5.24,9.07v80.7A10.48,10.48,0,0,0,145,302l69.89,40.35a10.51,10.51,0,0,0,10.48,0L295.27,302a10.48,10.48,0,0,0,5.24-9.08v-80.7a10.48,10.48,0,0,0-5.24-9.07L225.38,162.8a10.44,10.44,0,0,0-10.48,0Zm134.53,15.13v68.59l-59.4,34.29-59.4-34.29V218.28l59.4-34.3Z"/><path class="cls-1" d="M440.28,292.92a10.48,10.48,0,1,0-21,0v62.54L370.4,327.22V177.93l48.92-28.25v62.54a10.48,10.48,0,1,0,21,0V131.44a11.18,11.18,0,0,0-.09-1.29s0-.05,0-.07c-.06-.39-.14-.77-.23-1.15l-.09-.31c-.09-.31-.19-.61-.31-.91l-.12-.31a11.42,11.42,0,0,0-.55-1.11h0a8.4,8.4,0,0,0-.69-1c-.06-.09-.13-.17-.2-.26q-.3-.37-.63-.72l-.23-.23a9.26,9.26,0,0,0-.88-.78l-.05,0a9.21,9.21,0,0,0-1.08-.72.18.18,0,0,0-.07,0L365.15,82.1a10.48,10.48,0,1,0-10.48,18.16l54.16,31.27-48.92,28.24L230.62,85.13V28.64l54.17,31.27a10.48,10.48,0,0,0,10.48-18.16L225.38,1.4l-.08,0A9.4,9.4,0,0,0,224.15.8l-.09,0A9.93,9.93,0,0,0,223,.4l-.32-.09q-.47-.11-.93-.18l-.34,0a9.55,9.55,0,0,0-1.2-.08h-.07a9.71,9.71,0,0,0-1.21.08l-.34.05q-.47.07-.93.18l-.32.09a10.69,10.69,0,0,0-1.09.36l-.09,0a10.16,10.16,0,0,0-1.15.56.2.2,0,0,1-.08,0L145,41.75A10.49,10.49,0,0,0,155.5,59.91l54.16-31.27V85.13L80.37,159.77,31.45,131.53l54.16-31.27A10.48,10.48,0,0,0,75.13,82.1L5.24,122.45l-.06,0a9.86,9.86,0,0,0-1.09.73l0,0c-.31.25-.62.52-.91.8l-.21.22a9.19,9.19,0,0,0-.64.74l-.2.24c-.25.33-.48.68-.7,1a11.57,11.57,0,0,0-.55,1.12l-.12.31c-.12.3-.22.6-.31.91a2.81,2.81,0,0,0-.08.31,11.56,11.56,0,0,0-.24,1.14s0,.06,0,.08A9.26,9.26,0,0,0,0,131.43s0,.06,0,.1v80.69a10.49,10.49,0,1,0,21,0V149.68l48.92,28.25V327.22L21,355.46V292.92a10.49,10.49,0,0,0-21,0v80.7s0,.06,0,.09A9.17,9.17,0,0,0,.09,375a.19.19,0,0,0,0,.08,10.44,10.44,0,0,0,.22,1.14l.09.32c.09.3.19.6.31.9l.12.31a9.54,9.54,0,0,0,.55,1.11A9.8,9.8,0,0,0,2.18,380c.15.2.32.37.48.56s.27.32.42.47.46.41.69.61.22.2.35.29a9.53,9.53,0,0,0,.84.57l.28.19.06,0,0,0L75,423a10.36,10.36,0,0,0,5.23,1.41,10.48,10.48,0,0,0,5.25-19.56l-54-31.19,48.92-28.25,129.29,74.57v56.57L155.5,445.24A10.48,10.48,0,0,0,145,463.39l69.89,40.35.08,0a12.29,12.29,0,0,0,1.15.57l.09,0c.35.14.72.26,1.1.37l.31.08c.31.08.62.14.94.19l.33.05c.4,0,.82.08,1.24.08s.84,0,1.25-.08l.32-.05c.32,0,.63-.11.94-.19l.32-.08c.37-.11.74-.23,1.1-.37l.08,0a11.18,11.18,0,0,0,1.15-.57l.08,0,69.89-40.35a10.48,10.48,0,1,0-10.48-18.15l-54.17,31.27V419.94l129.29-74.57,48.93,28.25-54.17,31.27a10.48,10.48,0,0,0,10.48,18.16l69.8-40.3,0,0,.05,0,.28-.19a9.69,9.69,0,0,0,.85-.57c.12-.09.23-.2.34-.29s.47-.39.69-.61.28-.31.42-.47.33-.36.49-.56a11.89,11.89,0,0,0,.78-1.17,9.33,9.33,0,0,0,.54-1.1,2.85,2.85,0,0,0,.12-.31c.12-.3.22-.6.31-.9l.09-.32a10.77,10.77,0,0,0,.23-1.13s0-.06,0-.09a11,11,0,0,0,.09-1.28V292.92Zm-90.85,34.29L220.14,401.78,90.85,327.21V177.93l129.29-74.65,129.29,74.65Z"/></g></g></svg>