<svg xmlns="http://www.w3.org/2000/svg" viewBox="0 0 512.01 509.84"><defs><style>.cls-1{fill:#051019;}.cls-2{fill:#00edd3;}</style></defs><title>Securiity_Dark</title><g id="Layer_2" data-name="Layer 2"><g id="Layer_1-2" data-name="Layer 1"><path class="cls-1" d="M508.67,420.14l-51.33-34.36,8-15.25a7.49,7.49,0,0,0-.94-8.34c-.61-.72-14.51-16.74-46.17-33a426.13,426.13,0,0,0,27.25-80.66C466,161.16,458.56,86.1,458.23,83a7.49,7.49,0,0,0-6.69-6.69C391.87,70.1,343.23,50.2,312.94,34.59,280,17.62,261,1.9,260.81,1.74a7.52,7.52,0,0,0-9.62,0c-.75.63-76.16,62.7-190.73,74.52A7.51,7.51,0,0,0,53.77,83c-.15,1.42-3.52,35.2.28,83.9a7.5,7.5,0,1,0,15-1.17,538,538,0,0,1-.79-75.2c59.37-7.11,107.69-27,138.16-42.78A354.6,354.6,0,0,0,256,17,354.6,354.6,0,0,0,305.63,47.7c30.47,15.74,78.79,35.67,138.16,42.78,1.28,19.44,3.74,83.54-12.93,154.67-7.23,30.81-17.12,59.14-29.54,84.72L400.26,332q-1.14,2.33-2.33,4.62c-.44.86-.88,1.72-1.33,2.58-.83,1.59-1.68,3.16-2.54,4.73q-1.06,1.95-2.16,3.89c-.65,1.16-1.3,2.31-2,3.46s-1.34,2.29-2,3.43c-.49.82-1,1.63-1.48,2.44q-2.4,3.94-4.89,7.78c-.13.19-.24.38-.37.57-.86,1.32-1.74,2.63-2.62,3.93l-1.14,1.67Q369.6,382.5,361,392.87l-.1.12c-1.12,1.34-2.25,2.65-3.38,4-.9,1-1.8,2.05-2.71,3.06l-.55.62c-1,1.14-2.06,2.26-3.11,3.38a1.29,1.29,0,0,1-.16.17A267.45,267.45,0,0,1,256,469.36a270,270,0,0,1-110.2-83l-.33-.41-2.05-2.64a314,314,0,0,1-32.95-53.88,7.08,7.08,0,0,0-.78-1.27c-17.17-35.74-30.51-79.35-37.55-132.59a7.5,7.5,0,0,0-14.87,2c6.46,48.85,18.73,93,36.53,131.69-31.67,16.22-45.56,32.24-46.18,33a7.52,7.52,0,0,0-.94,8.34l8,15.25L3.33,420.14a7.5,7.5,0,0,0,.56,12.8L45.83,456v46.33a7.5,7.5,0,0,0,11.31,6.46l83.31-49.18.15-.1.25-.17.43-.31.21-.17c.17-.15.34-.3.5-.46l.08-.08a8.3,8.3,0,0,0,.54-.64l0,0,0-.05a6.44,6.44,0,0,0,.47-.73c0-.05.07-.1.1-.16a7.65,7.65,0,0,0,.38-.82.88.88,0,0,0,0-.15c.09-.24.17-.49.24-.74a1.46,1.46,0,0,1,0-.2,8.7,8.7,0,0,0,.15-.89.49.49,0,0,1,0-.12,7.3,7.3,0,0,0,0-.81v-.19c0-.3,0-.61-.1-.92,0,0,0,0,0-.06a7.72,7.72,0,0,0-.2-.83,1.42,1.42,0,0,1-.07-.22,7,7,0,0,0-.35-.86l-10.27-21.44a200.4,200.4,0,0,1,21.64-9.19,282.67,282.67,0,0,0,98.46,65.12,7.53,7.53,0,0,0,5.55,0,283,283,0,0,0,98.46-65.12,200.4,200.4,0,0,1,21.64,9.19l-10.27,21.44a6.58,6.58,0,0,0-.35.87c0,.07-.05.14-.07.21a8.34,8.34,0,0,0-.2.83s0,0,0,.06c-.05.31-.08.62-.1.93V453a7.48,7.48,0,0,0,0,.82.49.49,0,0,1,0,.12,8.5,8.5,0,0,0,.15.88,1.94,1.94,0,0,1,.05.2c.07.26.15.5.24.75a1.21,1.21,0,0,0,0,.14,7.81,7.81,0,0,0,.38.83l.1.16a7.94,7.94,0,0,0,.46.72s0,0,0,.05l0,0a6.76,6.76,0,0,0,.54.64l.08.08c.16.16.33.32.5.46l.21.17.43.31a2.2,2.2,0,0,0,.25.17l.15.1,83.31,49.18a7.5,7.5,0,0,0,11.31-6.46V456l41.94-23.07a7.49,7.49,0,0,0,.55-12.8ZM60.83,489.21V451.57A7.5,7.5,0,0,0,56.94,445l-35-19.26,39.74-26.6L88,449.51a8.15,8.15,0,0,0,.49.8c.07.1.15.19.22.28s.23.31.36.45a4.93,4.93,0,0,0,.4.39l.25.25.52.4.2.14a6.41,6.41,0,0,0,.62.38l.15.08c.23.12.46.22.7.32l.12,0a5.15,5.15,0,0,0,.76.24l.11,0,.49.12,21.76,3.69Zm50.87-47.89.54-.39,1.18-.84.78-.54,1.27-.87.81-.54,1.4-.92.53-.33,1.65-1.05.13-.08,3.64,7.58Zm7.88-22.68-.06,0-.19.11h0l-.08,0-.94.53-1.71,1-1,.58-.11.07-.16.08c-.9.53-1.77,1.06-2.62,1.58l-.4.24-1.52.95-.31.2,0,0a134.8,134.8,0,0,0-13.67,9.84L72.25,387,62.5,368.41c5.46-5.15,17.58-15.27,37.84-25.68q1.16,2.28,2.36,4.53c.4.76.81,1.52,1.22,2.28,1,1.92,2.08,3.83,3.15,5.71.24.43.46.86.7,1.28a315.15,315.15,0,0,0,26.46,39.39l.66.84c.79,1,1.57,2,2.36,2.93l1.23,1.49c.7.85,1.39,1.69,2.09,2.52q1.58,1.88,3.18,3.7A203.36,203.36,0,0,0,119.58,418.64ZM368.26,407.4l.05-.06c.65-.74,1.28-1.49,1.92-2.23l1.17-1.37c1-1.15,1.94-2.32,2.9-3.49l.1-.12q7.05-8.6,13.54-17.84c.57-.82,1.13-1.66,1.69-2.48.69-1,1.38-2,2.06-3s1.51-2.28,2.26-3.43c.6-.92,1.2-1.86,1.8-2.79,1-1.56,2-3.12,2.94-4.71.66-1.07,1.31-2.14,1.95-3.22.76-1.27,1.51-2.54,2.26-3.83s1.66-2.89,2.48-4.35c.44-.8.9-1.6,1.34-2.41,1.07-1.94,2.12-3.91,3.16-5.89.36-.67.71-1.35,1.06-2l.73-1.41c20.12,10.35,32.32,20.53,37.83,25.7l-34.27,65.46a136.25,136.25,0,0,0-13.68-9.84l0,0-.32-.2-1.52-.95-.5-.3c-.82-.5-1.65-1-2.52-1.52l-.15-.08-.11-.07-1-.58-1.71-1-.94-.53-.07,0h0l-.18-.11-.07,0A203.16,203.16,0,0,0,368.26,407.4Zm22.27,31.46,1.48-3.1.14.09,1.64,1c.18.11.37.22.54.34l1.4.92.81.53,1.27.88c.26.17.53.35.78.53l1.16.83.56.4-11.92,2ZM455.06,445a7.51,7.51,0,0,0-3.88,6.57v37.64l-54.36-32.09,21.76-3.69.23-.06.55-.13.39-.12.52-.2.37-.17.48-.26.34-.21c.16-.1.31-.22.46-.33a3.36,3.36,0,0,0,.29-.24c.16-.13.3-.28.45-.42s.16-.15.23-.23a6.9,6.9,0,0,0,.47-.6,1.58,1.58,0,0,0,.12-.15,7.12,7.12,0,0,0,.49-.8l26.37-50.37,39.75,26.6Z"/><path class="cls-2" d="M411.83,120.77a7.48,7.48,0,0,0-6.68-6.69c-86.5-8.93-143.78-55.89-144.34-56.36a7.49,7.49,0,0,0-9.61,0c-.57.48-57.84,47.44-144.34,56.37a7.49,7.49,0,0,0-6.69,6.69c-.14,1.39-3.44,34.56,1.71,79.85,4.77,42,18.07,102.46,54.33,152.44a7.5,7.5,0,1,0,12.13-8.81c-34.26-47.23-46.93-104.9-51.52-145a420.56,420.56,0,0,1-2.18-71C188.87,119.05,240.47,84.55,256,73c15.53,11.58,67.12,46.08,141.37,55.31a401.81,401.81,0,0,1-.06,46,7.5,7.5,0,0,0,15,.84C414.08,143.17,411.93,121.67,411.83,120.77Z"/><path class="cls-2" d="M403,197.68a7.5,7.5,0,0,0-8.38,6.5c-16.69,131.87-84,186.56-138.6,209.19a202.17,202.17,0,0,1-68.87-46.64,7.5,7.5,0,0,0-10.8,10.4,217.59,217.59,0,0,0,76.9,51.3,7.5,7.5,0,0,0,5.54,0c48.34-19.23,86.17-52.71,112.45-99.5,19.45-34.65,32.32-76,38.25-122.87A7.5,7.5,0,0,0,403,197.68Z"/><path class="cls-2" d="M339.84,179.48a26.3,26.3,0,0,0-37.14,0l-66.78,66.78-24.11-24.1a26.26,26.26,0,0,0-37.13,37.14L217.35,302a26.27,26.27,0,0,0,37.14,0l85.35-85.35A26.29,26.29,0,0,0,339.84,179.48ZM329.24,206l-85.35,85.35a11.26,11.26,0,0,1-15.93,0l-42.68-42.68a11.26,11.26,0,0,1,15.93-15.93l29.41,29.41a7.48,7.48,0,0,0,10.6,0l72.08-72.08A11.27,11.27,0,0,1,329.24,206Z"/></g></g></svg>