<svg xmlns="http://www.w3.org/2000/svg" viewBox="0 0 475.24 466.74"><defs><style>.cls-1{fill:#00edd3;}.cls-2{fill:#fff;}</style></defs><title>Adaptability_Light</title><g id="Layer_2" data-name="Layer 2"><g id="Layer_1-2" data-name="Layer 1"><path class="cls-1" d="M471.24,54.1,425.31,27.59a8,8,0,0,0-8,0L371.39,54.1a8,8,0,0,0-4,6.93v48.41l-16.26,9.39a8,8,0,1,0,8,13.85l16.26-9.39,41.92,24.21a8,8,0,0,0,8,0L471.24,121a8,8,0,0,0,4-6.93V61A8,8,0,0,0,471.24,54.1Zm-12,55.34-37.93,21.89-37.92-21.89V65.65l37.92-21.9,37.93,21.9Z"/><path class="cls-2" d="M417.31,239.7l-41.92,24.21-38-22c.06-.65.1-1.3.1-1.95V147.2a19.53,19.53,0,0,0-9.74-16.87l-80.36-46.4c-.57-.33-1.15-.61-1.74-.88V39.13l41.92-24.2a8,8,0,1,0-8-13.86L237.62,25.28,195.69,1.07a8,8,0,0,0-8,13.86l41.93,24.2V83.05a18.91,18.91,0,0,0-1.74.88l-80.37,46.4a19.53,19.53,0,0,0-9.74,16.87V240c0,.6,0,1.2.09,1.79l-38,22.11L57.92,239.7a8,8,0,0,0-8,13.86l41.93,24.2v48.41a8,8,0,0,0,16,0V277.74l37.9-22a19.1,19.1,0,0,0,1.76,1.16l80.37,46.4a19.54,19.54,0,0,0,19.48,0l80.36-46.4c.57-.33,1.11-.69,1.64-1.07l38,22v48.41a8,8,0,0,0,16,0V277.76l41.92-24.2a8,8,0,1,0-8-13.86Zm-95.85.3a3.47,3.47,0,0,1-1.74,3l-80.36,46.4a3.49,3.49,0,0,1-3.48,0L155.51,243a3.49,3.49,0,0,1-1.74-3V147.2a3.49,3.49,0,0,1,1.74-3l80.37-46.4a3.46,3.46,0,0,1,3.48,0l80.36,46.4a3.47,3.47,0,0,1,1.74,3Z"/><path class="cls-1" d="M53.92,148.57a8,8,0,0,0,4-1.07l41.9-24.19L118.16,134a8,8,0,1,0,8.08-13.82l-18.39-10.75V61a8,8,0,0,0-4-6.93L57.92,27.59a8,8,0,0,0-8,0L4,54.1A8,8,0,0,0,0,61v53A8,8,0,0,0,4,121L49.92,147.5A8,8,0,0,0,53.92,148.57ZM16,65.65l37.92-21.9,37.93,21.9v43.79L53.92,131.33,16,109.44Z"/><path class="cls-1" d="M287.54,372.27l-41.92-24.2v-21.9a8,8,0,1,0-16,0v21.9l-41.93,24.2a8,8,0,0,0-4,6.93v53a8,8,0,0,0,4,6.92l45.93,26.52a8,8,0,0,0,8,0l45.92-26.52a8,8,0,0,0,4-6.92v-53A8,8,0,0,0,287.54,372.27Zm-12,55.34L237.62,449.5l-37.93-21.89V383.82l37.93-21.9,37.92,21.9Z"/><path class="cls-1" d="M291.44,166.06s0,0,0-.06a6.87,6.87,0,0,0-.18-.88l-.06-.23c-.07-.24-.15-.47-.24-.7l-.09-.23a7.44,7.44,0,0,0-.42-.85h0a7.25,7.25,0,0,0-.53-.79l-.15-.19c-.16-.19-.32-.38-.49-.56s-.11-.11-.17-.17a6.28,6.28,0,0,0-.67-.59l0,0c-.27-.2-.54-.38-.82-.55l-.06,0-45.89-26.53a8,8,0,0,0-8,0l-46,26.57-.05,0a9.17,9.17,0,0,0-.83.55l0,0c-.24.19-.47.4-.69.61l-.17.17c-.17.18-.33.37-.49.56l-.15.19a7.56,7.56,0,0,0-1,1.65l-.09.23c-.09.23-.17.46-.24.7l-.06.23a6.72,6.72,0,0,0-.18.87s0,0,0,.07a7.93,7.93,0,0,0-.06,1s0,0,0,.06v52.93a8,8,0,0,0,4,6.92l46,26.58.06,0a9,9,0,0,0,.88.43l.05,0c.28.11.56.2.85.29l.24.06.72.14.25,0c.31,0,.62.06,1,.06h0c.32,0,.63,0,.94-.06l.24,0,.73-.14.24-.07a7.86,7.86,0,0,0,.82-.27l.08,0a8.79,8.79,0,0,0,.87-.43l.07,0,45.89-26.5a8,8,0,0,0,4-6.93V167C291.5,166.71,291.48,166.38,291.44,166.06Zm-53.83-16.25,29.91,17.29-30,17.3-29.94-17.27Zm-38,31.17,30,17.28,0,34.5-30-17.32Zm46,51.8,0-34.53L275.51,181v34.55Z"/></g></g></svg>